<svg xmlns="http://www.w3.org/2000/svg" viewBox="0 0 88.88 88.87"><defs><style>.cls-1{fill:#fff;}.cls-1,.cls-2{stroke:#201600;stroke-miterlimit:10;stroke-width:4px;}.cls-2{fill:none;}</style></defs><g id="Слой_2" data-name="Слой 2"><g id="Слой_1-2" data-name="Слой 1"><path class="cls-1" d="M86.81,46.6a42.45,42.45,0,0,1-59,36.87,43.9,43.9,0,0,1,59-36.87Z"/><path class="cls-2" d="M86.87,44.44q0,1.1-.06,2.16A42.43,42.43,0,1,1,67.26,8.66a42.83,42.83,0,0,1,11,10.19A42.3,42.3,0,0,1,86.87,44.44Z"/><path class="cls-2" d="M67.26,8.66a43.54,43.54,0,0,1-6.94,13.58,43.8,43.8,0,0,1-35,17.42,43.69,43.69,0,0,1-22-5.88A42.44,42.44,0,0,1,67.26,8.66Z"/><path class="cls-2" d="M64.71,81.72A42.44,42.44,0,1,1,26,6.2,136.65,136.65,0,0,1,35.86,17,137.38,137.38,0,0,1,64.71,81.72Z"/></g></g></svg>