<svg xmlns="http://www.w3.org/2000/svg" viewBox="0 0 59.44 103.11"><defs><style>.cls-1,.cls-3{fill:none;}.cls-1,.cls-2,.cls-3,.cls-4{stroke:#201600;stroke-miterlimit:10;}.cls-1{stroke-width:8px;}.cls-2,.cls-4{fill:#201600;}.cls-2{stroke-width:2px;}.cls-3,.cls-4{stroke-width:4px;}</style></defs><g id="Слой_2" data-name="Слой 2"><g id="Слой_1-2" data-name="Слой 1"><path class="cls-1" d="M55.44,30.23c-.28,14.21-27,64.08-27,64.08S3.72,43.42,4,29.21a25.73,25.73,0,0,1,51.44,1Z"/><circle class="cls-2" cx="29.34" cy="29.72" r="8.25"/><path class="cls-3" d="M55.06,30.4c0,14.2-25.72,33.79-25.72,33.79S3.61,44.6,3.61,30.4"/><path class="cls-3" d="M29.34,94.32S3.61,43.93,3.61,29.72"/><path class="cls-3" d="M55.06,29.72c0,14.21-27.69,60.69-27.69,60.69"/><path class="cls-3" d="M29.34,84.43S12.66,58.31,12.66,50.94"/><path class="cls-3" d="M47,47.3c0,14.09-21.23,40.78-21.23,40.78"/><line class="cls-3" x1="18.23" y1="67.53" x2="40.44" y2="67.53"/><rect class="cls-4" x="24.44" y="68.79" width="9.7" height="9.7" transform="translate(1.46 -0.57) rotate(1.13)"/><line class="cls-3" x1="46.35" y1="51.55" x2="31.06" y2="68.58"/><line class="cls-3" x1="34.55" y1="67.32" x2="42.85" y2="58.07"/><line class="cls-3" x1="12.74" y1="54.35" x2="23.72" y2="65.77"/><line class="cls-3" x1="18.61" y1="60.57" x2="29.34" y2="67.53"/><circle class="cls-1" cx="29.34" cy="29.72" r="23.69"/><line class="cls-1" x1="19.97" y1="58.76" x2="38.61" y2="56.97"/><line class="cls-1" x1="15.55" y1="56.02" x2="30.99" y2="69.19"/></g></g></svg>